<svg xmlns="http://www.w3.org/2000/svg" aria-hidden="true" style="position:absolute;width:0;height:0;overflow:hidden">
    <defs>
        <symbol id="facebook" viewBox="0 0 32 32">
            <path
                d="M32 16c0-8.838-7.162-16-16-16S0 7.162 0 16c0 8.838 7.162 16 16 16 .094 0 .188 0 .281-.006v-12.45h-3.438v-4.006h3.438v-2.95c0-3.419 2.087-5.281 5.137-5.281 1.463 0 2.719.106 3.081.156v3.575h-2.1c-1.656 0-1.981.787-1.981 1.944v2.55h3.969l-.519 4.006h-3.45v11.844c6.688-1.919 11.581-8.075 11.581-15.381z" />
        </symbol>
        <symbol id="instagram" viewBox="0 0 32 32">
            <path d="M19.062 16a3.062 3.062 0 1 1-6.124 0 3.062 3.062 0 0 1 6.124 0z" />
            <path
                d="M23.162 10.582a2.84 2.84 0 0 0-.687-1.056 2.84 2.84 0 0 0-1.056-.687c-.324-.126-.81-.275-1.706-.316-.969-.044-1.26-.054-3.713-.054s-2.744.009-3.713.053c-.896.041-1.382.191-1.706.316a2.84 2.84 0 0 0-1.056.687 2.84 2.84 0 0 0-.687 1.056c-.126.324-.275.81-.316 1.706-.044.969-.054 1.259-.054 3.713s.01 2.744.054 3.713c.041.896.19 1.382.316 1.706.147.399.382.76.687 1.056.296.305.657.54 1.056.687.324.126.81.276 1.706.316.969.044 1.259.053 3.712.053s2.744-.009 3.713-.053c.896-.041 1.382-.19 1.706-.316a3.042 3.042 0 0 0 1.744-1.744c.126-.324.275-.81.316-1.706.044-.969.054-1.26.054-3.713s-.009-2.744-.054-3.713c-.041-.896-.19-1.382-.316-1.706zM16 20.718a4.718 4.718 0 1 1 0-9.435 4.718 4.718 0 0 1 0 9.435zm4.904-8.52a1.103 1.103 0 1 1 0-2.206 1.103 1.103 0 0 1 0 2.206z" />
            <path
                d="M16 0C7.165 0 0 7.165 0 16s7.165 16 16 16 16-7.165 16-16S24.835 0 16 0zm9.132 19.788c-.044.978-.2 1.646-.427 2.23a4.697 4.697 0 0 1-2.687 2.687c-.584.227-1.252.382-2.23.427-.98.045-1.293.055-3.788.055s-2.808-.011-3.788-.055c-.978-.045-1.646-.2-2.23-.427a4.5 4.5 0 0 1-1.627-1.06 4.513 4.513 0 0 1-1.06-1.627c-.227-.584-.383-1.252-.427-2.23-.045-.98-.056-1.293-.056-3.788s.011-2.808.055-3.788c.044-.978.2-1.646.427-2.23a4.513 4.513 0 0 1 1.06-1.627 4.5 4.5 0 0 1 1.627-1.06c.584-.227 1.252-.382 2.23-.427.98-.045 1.293-.055 3.788-.055s2.808.011 3.788.056c.978.044 1.646.2 2.23.426a4.513 4.513 0 0 1 1.627 1.06 4.513 4.513 0 0 1 1.06 1.627c.227.584.383 1.252.427 2.23.045.98.055 1.293.055 3.788s-.01 2.808-.055 3.788z" />
        </symbol>
        <symbol id="twitter" viewBox="0 0 32 32">
            <path
                d="M16 0C7.178 0 0 7.178 0 16s7.178 16 16 16 16-7.178 16-16S24.823 0 16 0zm7.138 12.338c.007.159.011.318.011.478 0 4.866-3.703 10.476-10.479 10.476-2.08 0-4.016-.608-5.645-1.653a7.394 7.394 0 0 0 5.452-1.524 3.686 3.686 0 0 1-3.44-2.558 3.673 3.673 0 0 0 1.663-.062 3.684 3.684 0 0 1-2.953-3.657 3.672 3.672 0 0 0 1.667.46 3.68 3.68 0 0 1-1.638-3.065c0-.675.181-1.308.498-1.852a10.457 10.457 0 0 0 7.59 3.849 3.684 3.684 0 0 1 6.275-3.36 7.343 7.343 0 0 0 2.34-.894 3.698 3.698 0 0 1-1.622 2.038 7.326 7.326 0 0 0 2.115-.579 7.42 7.42 0 0 1-1.836 1.904z" />
        </symbol>
        <symbol id="logo" viewBox="0 0 76 32">
            <path fill="#007163"
                d="m32.818 11.425-.86.041c.402 1.382.705 3.081.705 4.535a15.167 15.167 0 0 1-4.424 10.735 15.047 15.047 0 0 1-4.801 3.253c-1.862.791-3.841 1.193-5.88 1.193s-4.018-.402-5.88-1.193c-1.799-.764-3.414-1.86-4.801-3.253S4.4 23.717 3.64 21.911c-.787-1.872-1.187-3.86-1.187-5.91A15.167 15.167 0 0 1 6.877 5.266a15.073 15.073 0 0 1 4.802-3.255 14.958 14.958 0 0 1 5.88-1.193c3.106 0 6.091.941 8.628 2.719a15.148 15.148 0 0 1 5.232 6.416H25.3v.818h7.321l-.215-.556a15.952 15.952 0 0 0-5.753-7.348A15.782 15.782 0 0 0 17.558.002c-2.149 0-4.234.423-6.196 1.257a15.854 15.854 0 0 0-5.06 3.43A15.971 15.971 0 0 0 1.64 16c0 2.159.421 4.255 1.251 6.227a15.969 15.969 0 0 0 3.411 5.086 15.872 15.872 0 0 0 5.06 3.429c1.962.835 4.047 1.257 6.196 1.257s4.234-.423 6.196-1.257a15.867 15.867 0 0 0 5.06-3.429 15.958 15.958 0 0 0 3.411-5.086A15.95 15.95 0 0 0 33.476 16a16.588 16.588 0 0 0-.658-4.574z"
                style="fill:var(--color1, #007163)" />
            <path fill="#a67c52"
                d="M25.092 9.349h-2.829a.208.208 0 0 0-.207.208v1.507c0 .114.093.208.207.208h2.829a.207.207 0 0 0 .178-.103.24.24 0 0 0 .026-.066.164.164 0 0 0 .004-.038V9.558l-.001-.018a.207.207 0 0 0-.207-.19z"
                style="fill:var(--color2, #a67c52)" />
            <path fill="#1a2535"
                d="M28.783 9.386c-3.126-5.273-9.741-7.989-16.134-5.501-4.328 1.684-8.05 6.911-8.234 11.572-.393 9.971 9.609 16.82 18.808 12.562a12.775 12.775 0 0 0 7.276-9.876c.338-2.503.009-4.831-.798-6.88h-3.846v.175c0 .113-.09.205-.204.205h-3.888a.204.204 0 0 1-.204-.205v-2.32c0-.113.09-.205.204-.205h3.888c.112 0 .204.091.204.205v.267h2.928zm-18.06 15.09a8.861 8.861 0 0 1-3.267-5.975l.986-.109a7.865 7.865 0 0 0 2.901 5.306 7.787 7.787 0 0 0 5.784 1.69l.108.991a8.77 8.77 0 0 1-6.512-1.903zm-.681-6.568 1.183-.132c.328 2.996 3.012 5.158 5.992 4.828l.131 1.189c-3.629.403-6.906-2.238-7.306-5.885zm11.597-.967a3.973 3.973 0 0 1-1.997 2.829c-3.193 1.76-6.841-.842-6.243-4.452a3.976 3.976 0 0 1 1.997-2.829c3.194-1.76 6.843.842 6.243 4.452z"
                style="fill:var(--color3, #1a2535)" />
            <path fill="#007163"
                d="m1.796 24.654-.032-.24a.91.91 0 0 0-.231-.398 28.85 28.85 0 0 1-.182-.141.908.908 0 0 0-.452-.124.697.697 0 0 0-.346.077.686.686 0 0 0-.289.186.66.66 0 0 0-.185.29.671.671 0 0 0-.077.348l.032.24a.91.91 0 0 0 .231.398l.182.141c.14.081.29.122.452.124a.695.695 0 0 0 .346-.077.686.686 0 0 0 .289-.186.66.66 0 0 0 .185-.29.699.699 0 0 0 .077-.347z"
                style="fill:var(--color1, #007163)" />
            <path
                d="M42.386 12.906c-.551 0-1.012-.118-1.382-.354-.362-.236-.638-.563-.827-.981s-.299-.902-.331-1.453l1.182-.319c.024.339.075.666.154.981.087.315.224.575.414.78.189.197.453.295.792.295.347 0 .607-.095.78-.284.181-.197.272-.477.272-.839 0-.433-.098-.78-.295-1.04a5.293 5.293 0 0 0-.744-.803l-1.607-1.418a2.731 2.731 0 0 1-.697-.898c-.15-.331-.224-.737-.224-1.217 0-.701.201-1.245.603-1.631s.949-.579 1.642-.579a2.9 2.9 0 0 1 .992.154c.291.095.532.244.721.449.197.205.351.465.461.78.118.307.197.67.236 1.087l-1.134.307a4.613 4.613 0 0 0-.142-.863 1.239 1.239 0 0 0-.378-.638c-.173-.165-.425-.248-.756-.248s-.591.091-.78.272c-.181.173-.272.433-.272.78 0 .291.047.532.142.721.102.189.264.382.484.579l1.619 1.418c.362.315.681.693.957 1.134.276.433.414.949.414 1.548 0 .473-.098.882-.295 1.229a1.994 1.994 0 0 1-.815.78 2.473 2.473 0 0 1-1.182.272zm3.328-.106V3.23h3.71v.992h-2.375v3.167h1.926v.945h-1.926v3.509h2.399v.957h-3.734zm7.068.106c-.551 0-1.012-.118-1.382-.354-.362-.236-.638-.563-.827-.981s-.299-.902-.331-1.453l1.182-.319c.024.339.075.666.154.981.087.315.224.575.414.78.189.197.453.295.792.295.347 0 .607-.095.78-.284.181-.197.272-.477.272-.839 0-.433-.098-.78-.295-1.04a5.293 5.293 0 0 0-.744-.803L51.19 7.471a2.731 2.731 0 0 1-.697-.898c-.15-.331-.224-.737-.224-1.217 0-.701.201-1.245.603-1.631s.949-.579 1.642-.579a2.9 2.9 0 0 1 .992.154c.291.095.532.244.721.449.197.205.351.465.461.78.118.307.197.67.236 1.087l-1.134.307a4.613 4.613 0 0 0-.142-.863 1.239 1.239 0 0 0-.378-.638c-.173-.165-.425-.248-.756-.248s-.591.091-.78.272c-.181.173-.272.433-.272.78 0 .291.047.532.142.721.102.189.264.382.484.579l1.619 1.418c.362.315.681.693.957 1.134.276.433.414.949.414 1.548 0 .473-.098.882-.295 1.229a1.994 1.994 0 0 1-.815.78 2.473 2.473 0 0 1-1.182.272zm5.504 0c-.551 0-1.012-.118-1.382-.354-.362-.236-.638-.563-.827-.981s-.299-.902-.331-1.453l1.182-.319c.024.339.075.666.154.981.087.315.224.575.414.78.189.197.453.295.792.295.347 0 .607-.095.78-.284.181-.197.272-.477.272-.839 0-.433-.098-.78-.295-1.04a5.293 5.293 0 0 0-.744-.803l-1.607-1.418a2.731 2.731 0 0 1-.697-.898c-.15-.331-.224-.737-.224-1.217 0-.701.201-1.245.603-1.631s.949-.579 1.642-.579a2.9 2.9 0 0 1 .992.154c.291.095.532.244.721.449.197.205.351.465.461.78.118.307.197.67.236 1.087l-1.134.307a4.613 4.613 0 0 0-.142-.863 1.239 1.239 0 0 0-.378-.638c-.173-.165-.425-.248-.756-.248s-.591.091-.78.272c-.181.173-.272.433-.272.78 0 .291.047.532.142.721.102.189.264.382.484.579l1.619 1.418c.362.315.681.693.957 1.134.276.433.414.949.414 1.548 0 .473-.098.882-.295 1.229a1.994 1.994 0 0 1-.815.78 2.473 2.473 0 0 1-1.182.272zm3.399-.106V3.23h1.312v9.57h-1.312zm5.305.106c-.646 0-1.162-.126-1.548-.378s-.662-.61-.827-1.075c-.165-.473-.248-1.024-.248-1.654V6.172c0-.63.083-1.17.248-1.619.173-.457.449-.803.827-1.04.386-.244.902-.366 1.548-.366s1.158.122 1.536.366c.378.244.65.591.815 1.04.173.449.26.989.26 1.619v3.639c0 .622-.087 1.166-.26 1.631a2.151 2.151 0 0 1-.815 1.087c-.378.252-.89.378-1.536.378zm0-1.051c.354 0 .622-.071.803-.213.181-.15.303-.354.366-.614.063-.268.095-.579.095-.933V5.901a3.75 3.75 0 0 0-.095-.91c-.063-.26-.185-.457-.366-.591-.181-.142-.449-.213-.803-.213s-.626.071-.815.213c-.181.134-.303.331-.366.591a3.794 3.794 0 0 0-.095.91v4.194c0 .354.031.666.095.933.063.26.185.465.366.614.189.142.461.213.815.213zm3.923.945V3.23h.91l2.718 6.357V3.23h1.111v9.57h-.851l-2.753-6.534V12.8h-1.134zM54.551 30.618c-.268 0-.504-.075-.709-.224a1.68 1.68 0 0 1-.484-.591 1.743 1.743 0 0 1-.177-.768c0-.425.071-.784.213-1.075s.335-.536.579-.733c.252-.205.54-.382.863-.532.331-.15.677-.295 1.04-.437v-.484c0-.276-.016-.504-.047-.685s-.098-.315-.201-.402c-.095-.095-.24-.142-.437-.142a.712.712 0 0 0-.425.118.673.673 0 0 0-.224.343 1.622 1.622 0 0 0-.071.508v.343l-1.252-.047c.016-.756.189-1.311.52-1.666.331-.362.843-.544 1.536-.544.677 0 1.158.185 1.441.555s.425.906.425 1.607v3.119c0 .213.004.417.012.614l.047.555c.024.165.043.323.059.473h-1.158a23.405 23.405 0 0 0-.095-.473 8.947 8.947 0 0 1-.071-.532 1.83 1.83 0 0 1-.461.756c-.221.228-.528.343-.922.343zm.496-1.087c.126 0 .244-.035.354-.106s.209-.15.295-.236a1.38 1.38 0 0 0 .177-.224v-1.938c-.197.11-.382.221-.555.331s-.327.228-.461.354a1.45 1.45 0 0 0-.307.414c-.071.15-.106.323-.106.52 0 .276.051.492.154.65s.252.236.449.236zm3.346.992v-6.829h1.264v.969c.252-.417.504-.697.756-.839s.504-.213.756-.213h.083c.032 0 .071.004.118.012v1.394a1.72 1.72 0 0 0-.331-.095 1.392 1.392 0 0 0-.366-.047c-.197 0-.378.047-.544.142-.158.087-.315.26-.473.52v4.986h-1.264zm5.58.095c-.354 0-.642-.067-.863-.201a1.202 1.202 0 0 1-.473-.567 2.376 2.376 0 0 1-.142-.863v-4.454h-.721v-.839h.721v-1.997h1.264v1.997h1.099v.839h-1.099v4.372c0 .268.043.461.13.579.087.11.252.165.496.165.063 0 .134-.004.213-.012l.248-.024v.933a4.82 4.82 0 0 1-.437.047c-.134.016-.28.024-.437.024zm1.898-.095v-6.829h1.264v6.829h-1.264zm0-7.845v-1.323h1.264v1.323h-1.264zm4.2 7.94c-.559 0-1.008-.173-1.347-.52-.339-.354-.532-.819-.579-1.394l1.052-.319c.063.433.169.76.319.981.15.213.37.319.662.319.228 0 .402-.063.52-.189.118-.134.177-.311.177-.532 0-.197-.043-.374-.13-.532s-.228-.319-.425-.484l-1.17-1.004a3.336 3.336 0 0 1-.603-.685c-.158-.252-.236-.579-.236-.981 0-.362.071-.666.213-.91.15-.252.354-.441.614-.567a2.06 2.06 0 0 1 .933-.201c.567 0 1 .177 1.3.532.299.347.473.768.52 1.264l-.898.319a2.914 2.914 0 0 0-.142-.614.892.892 0 0 0-.272-.414.68.68 0 0 0-.461-.154.63.63 0 0 0-.496.213.707.707 0 0 0-.177.484c0 .118.024.236.071.354.055.11.146.221.272.331l1.205 1.111c.165.15.319.311.461.484.15.173.272.37.366.591s.142.477.142.768c0 .386-.079.709-.236.969s-.378.457-.662.591a2.427 2.427 0 0 1-.993.189zm4.656 0c-.354 0-.642-.067-.863-.201a1.202 1.202 0 0 1-.473-.567 2.376 2.376 0 0 1-.142-.863v-4.454h-.721v-.839h.721v-1.997h1.264v1.997h1.099v.839h-1.099v4.372c0 .268.043.461.13.579.087.11.252.165.496.165.063 0 .134-.004.213-.012l.248-.024v.933a4.82 4.82 0 0 1-.437.047c-.134.016-.28.024-.437.024z"
                style="fill:var(--color4, #000)" />
        </symbol>
        <symbol id="background" viewBox="0 0 49 32">
            <path
                d="M30.75 24.75h-29.5c-0.69 0-1.25 0.56-1.25 1.25s0.56 1.25 1.25 1.25h29.5c0.69 0 1.25-0.56 1.25-1.25s-0.56-1.25-1.25-1.25z">
            </path>
        </symbol>
        <symbol id="search" viewBox="0 0 32 32">
            <path
                d="M27.936 13.944c0 7.701-6.254 13.944-13.968 13.944S0 21.645 0 13.944C0 6.243 6.254 0 13.968 0s13.968 6.243 13.968 13.944zM13.968 26.099c6.686 0 12.105-5.427 12.105-12.122S20.653 1.855 13.968 1.855c-6.686 0-12.105 5.427-12.105 12.122s5.42 12.122 12.105 12.122z" />
            <path
                d="M24.461 23.148c-.411.466-.852.905-1.321 1.313l7.323 7.336c.2.132.765.431 1.264-.099s.2-1.093 0-1.292l-7.266-7.257z" />
        </symbol>
        <symbol id="close" viewBox="0 0 32 32">
            <path
                d="M2.295 29.705a.991.991 0 0 0 .708.293 1.006 1.006 0 0 0 .708-.293l12.29-12.29 12.295 12.29a1 1 0 0 0 1.709-.708.996.996 0 0 0-.293-.707L17.417 16l12.29-12.295a1 1 0 0 0-.708-1.709 1 1 0 0 0-.708.293l-12.29 12.295L3.706 2.294a1.002 1.002 0 0 0-1.357.052 1.002 1.002 0 0 0-.052 1.357l12.29 12.295-12.29 12.295a1.001 1.001 0 0 0 0 1.41z" />
        </symbol>
        <symbol id="menu" viewBox="0 0 32 32">
            <path
                d="M30.75 14.75H1.25a1.25 1.25 0 0 0 0 2.5h29.5a1.25 1.25 0 0 0 0-2.5zM30.75 4.75H1.25a1.25 1.25 0 0 0 0 2.5h29.5a1.25 1.25 0 0 0 0-2.5zM30.75 24.75H1.25a1.25 1.25 0 0 0 0 2.5h29.5a1.25 1.25 0 0 0 0-2.5z" />
        </symbol>
    </defs>
</svg>